<?xml version="1.0" encoding="iso-8859-1"?>
<!-- Uploaded to: SVG Repo, www.svgrepo.com, Generator: SVG Repo Mixer Tools -->
<!DOCTYPE svg PUBLIC "-//W3C//DTD SVG 1.1//EN" "http://www.w3.org/Graphics/SVG/1.1/DTD/svg11.dtd">
<svg version="1.1" id="Capa_1" xmlns="http://www.w3.org/2000/svg" xmlns:xlink="http://www.w3.org/1999/xlink" 
	viewBox="0 0 247.957 247.957" xml:space="preserve">
<g>
	<g>
		<path style="fill:#351F10;" d="M86.413,180.861l-5.533-35.924l39.01-60.979l-38.422,37.142l-39.4,1.29l-32.667,56l32.501-34.271
			l-6.236,35.681l6.814,0.127l7.229,51.336l-7.819,15.695l14.178-7.568v-9.655c0,0,6.029-46.813,6.029-45.576
			c0,1.236,0,54.931,0,54.931l15.793,8.869l-7.156-16.568l10.904-50.743L86.413,180.861z"/>
		<polygon style="fill:#E2D4BF;" points="48.407,117.603 63.612,163.928 73.136,116.779 		"/>
		<g>
			<path style="fill:#EABB98;" d="M91.014,90.051c-0.443-4.074-3.189-7.117-6.129-6.795c-1.184,0.129-2.217,0.789-3.003,1.792
				c-5.533-5.342-16.054-7.314-26.921-4.347c-11.659,3.186-20.087,11.068-21.322,19.06c-1.752-0.867-3.606-0.94-5.012-0.007
				c-2.467,1.633-2.635,5.727-0.372,9.142c2.262,3.417,6.096,4.862,8.564,3.228c0.379-0.251,0.696-0.566,0.967-0.921
				c5.609,5.125,15.949,6.969,26.615,4.055c10.806-2.951,18.833-9.932,20.938-17.3c0.377,0.069,0.761,0.089,1.15,0.048
				C89.431,97.685,91.455,94.125,91.014,90.051z"/>
			<g>
				
					<ellipse transform="matrix(0.9993 0.038 -0.038 0.9993 3.7062 -1.8449)" style="fill:#351F10;" cx="50.353" cy="96.505" rx="2.138" ry="2.318"/>
				
					<ellipse transform="matrix(0.9993 0.038 -0.038 0.9993 3.5645 -2.5271)" style="fill:#351F10;" cx="68.217" cy="92.442" rx="2.138" ry="2.317"/>
			</g>
			<path style="fill:#351F10;" d="M29.826,88.157c-0.662,4.816,0.27,9.889,3.83,14.931c0,0,2.393-13.388,17.803-19.781
				L29.826,88.157z"/>
			<path style="fill:#351F10;" d="M61.453,81.066c14.076-0.333,25.009,10.833,25.009,10.833s-0.431-7.384-5.49-15.21L61.453,81.066z
				"/>
		</g>
		<path style="fill:#665E5A;" d="M49.259,117.39l-10.285,5.243c0,0,8.551,32.627,24.213,40.87L49.259,117.39z"/>
		<path style="fill:#665E5A;" d="M70.45,113.907l-6.838,50.021c0,0,15.733-23.458,19.855-42.829L70.45,113.907z"/>
		<polygon style="fill:#FFFFFF;" points="60.894,116.167 47.04,109.383 48.491,127.027 61.103,119.52 74.257,127.044 
			74.042,109.476 		"/>
		<g>
			
				<rect x="19.503" y="76.352" transform="matrix(0.9758 -0.2188 0.2188 0.9758 -16.0919 14.0562)" style="fill:#351F10;" width="71.834" height="6.667"/>
			
				<rect x="32.063" y="48.677" transform="matrix(0.9758 -0.2188 0.2188 0.9758 -12.633 12.6065)" style="fill:#351F10;" width="37.082" height="29.333"/>
			
				<rect x="48.633" y="54.184" transform="matrix(-0.2188 -0.9758 0.9758 -0.2188 -6.7252 140.0663)" style="fill:#665E5A;" width="8.149" height="37.082"/>
		</g>
	</g>
	<g>
		<path style="fill:#F7F2E8;" d="M163.462,68.044c0,0-28.395,6.012-32.395,58.679c0,0,48.83,15.629,84-8
			c0,0-5.994-41.436-32.922-46.382L163.462,68.044z"/>
		<path style="fill:#EABB98;" d="M179.891,114.584c4.902-0.438,9.234-1.98,12.368-4.358c1.578,0.273,3.839-1.054,5.504-3.373
			c1.983-2.765,2.365-5.885,0.854-6.966c-0.347-0.25-0.769-0.364-1.231-0.367c-0.717-7.762-9.337-15.132-20.943-17.289
			c-10.363-1.926-19.998,0.885-24.406,6.484c-0.488-0.567-1.07-0.909-1.71-0.933c-1.858-0.07-3.466,2.538-3.586,5.826
			c-0.124,3.287,1.281,6.009,3.142,6.079c0.105,0.004,0.209-0.004,0.313-0.017c1.503,4.388,5.451,10.438,10.879,13.235
			L111.89,82.957l47.578,38.396l17.311,1.183l53.111,22.421L179.891,114.584z"/>
		<path style="fill:#F9EDDC;" d="M164.659,145.38l-3.594-24.682c0,0,6.656-4.254,9.066-4.297c2.674-0.047,10.168,4.297,10.168,4.297
			l-4.1,24.569L164.659,145.38z"/>
		<path style="fill:#351F10;" d="M189.029,75.029c3.151-2.557,16.578-14.634-1.564-21.49c-18.19-6.874-17.194,11.497-16.875,14.813
			c-21.534-1.669-21.262,21.975-21.262,21.975s15.416,4.263,26.13-8.28c0,0,2.162,16.193,20.872,20.788
			C196.33,102.835,202.49,85.399,189.029,75.029z"/>
		
			<ellipse transform="matrix(0.9832 0.1827 -0.1827 0.9832 19.9152 -28.3025)" style="fill:#351F10;" cx="163.526" cy="93.908" rx="2.139" ry="2.318"/>
		
			<ellipse transform="matrix(0.9832 0.1828 -0.1828 0.9832 21.0047 -31.4565)" style="fill:#351F10;" cx="181.176" cy="98.237" rx="2.138" ry="2.319"/>
		<path style="fill:#F9EDDC;" d="M190.304,74.724c1.258-0.515,5.25-2.701,3.637-4.526c-1.266-1.434-5.732,1.093-5.76,2.407
			c0.334-1.644,0.468-5.528-2.019-4.669c-1.751,0.604-1.835,5.085-1.06,6.567c-0.796-2.054-5.327-2.69-6.051-0.848
			c-1.256,3.208,3.84,4.289,6.076,3.492c-1.656,1.351-4.192,3.624-2.485,5.388c0.166,0.172,2.14,0.553,2.41,0.467
			c0.698-0.221,1.452-1.099,1.863-1.976c-0.098,1.562,0.275,3.446,1.691,3.545c2.88,0.203,2.864-5.322,2.05-6.758
			c1.15,1.521,3.767,1.831,4.486,0.116C196.373,75,192.463,73.766,190.304,74.724z"/>
		<path style="fill:#FFF7E9;" d="M135.224,227.957c0,0,1.506-90.02,38.947-83.179c37.441,6.839,64.386,78.512,64.386,78.512
			S187.224,255.957,135.224,227.957z"/>
		<path style="fill:#F9EDDC;" d="M226.868,196.081c0,0-16.155-55.41-55.513-51.289c0.024-0.217,0.034-0.335,0.034-0.335
			c-39.5,2.5-34,61-34,61c34.613-12.426,32.656-51.054,33.803-59.361C172.951,153.476,190.618,187.158,226.868,196.081z"/>
		<path style="fill:#F9EDDC;" d="M135.229,97.169L111.89,82.957l21.626,17.453C134.066,99.318,134.634,98.236,135.229,97.169z"/>
		<path style="fill:#F9EDDC;" d="M199.552,132.15l30.338,12.808l-28.607-17.378C200.837,129.122,200.247,130.651,199.552,132.15z"/>
	</g>
	<g>
		<g>
			<path style="fill:#665E5A;" d="M113.45,53.624h-1.779c0.069,9.127,1.538,22.182,5.752,40.845
				c12.327,54.592-8.484,71.688-8.694,71.853l1.107,1.424c0.902-0.702,21.956-17.832,9.347-73.675
				C114.966,75.4,113.527,62.507,113.45,53.624z"/>
		</g>
		<g>
			<path style="fill:#FE0000;" d="M142.611,7.747c-8.369-14.614-24.622-5.387-29.539,1.933c-4.917-7.32-21.169-16.547-29.539-1.933
				c-10.971,19.153,15.266,34.742,29.297,42.571c0,0,0.163,0.179,0.242,0.135c0.079,0.044,0.242-0.135,0.242-0.135
				C127.345,42.489,153.58,26.901,142.611,7.747z"/>
			<polygon style="fill:#FE0000;" points="112.829,50.318 106.89,58.957 120.89,59.957 			"/>
		</g>
	</g>
</g>
</svg>